<?xml version="1.0" standalone="no"?>
<!DOCTYPE svg PUBLIC "-//W3C//DTD SVG 20010904//EN"
 "http://www.w3.org/TR/2001/REC-SVG-20010904/DTD/svg10.dtd">
<svg version="1.0" xmlns="http://www.w3.org/2000/svg"
 width="576.000000pt" height="576.000000pt" viewBox="0 0 576.000000 576.000000"
 preserveAspectRatio="xMidYMid meet">
<metadata>
Created by potrace 1.11, written by Peter Selinger 2001-2013
</metadata>
<g transform="translate(0.000000,576.000000) scale(0.100000,-0.100000)"
fill="#000000" stroke="none">
<path d="M2724 5053 c4 -29 -4 -145 -19 -288 -56 -531 -115 -1097 -126 -1219
-8 -78 -18 -133 -26 -141 -7 -8 -13 -22 -13 -33 0 -11 -83 -114 -193 -238
-151 -171 -199 -220 -220 -222 -23 -3 -27 -8 -27 -33 0 -24 4 -29 23 -29 30 0
410 -428 415 -468 2 -14 9 -31 16 -37 8 -6 22 -104 39 -275 15 -146 40 -393
57 -550 82 -791 82 -793 70 -800 -7 -4 -8 -18 -4 -33 11 -48 64 -32 64 19 0 8
-7 14 -15 14 -13 0 -15 103 -15 870 0 767 2 870 15 870 10 0 15 10 15 30 0 25
-4 30 -24 30 -18 0 -61 40 -180 172 -93 103 -156 179 -154 189 2 9 68 87 148
174 80 86 147 161 148 166 2 5 15 9 28 9 20 0 24 5 24 30 0 17 -4 30 -10 30
-7 0 -10 298 -10 875 0 577 3 875 10 875 6 0 10 14 10 30 0 26 -4 30 -26 30
-26 0 -27 -1 -20 -47z"/>
<path d="M2980 5065 c0 -19 5 -35 10 -35 7 0 10 -297 10 -870 0 -573 -3 -870
-10 -870 -5 0 -10 -13 -10 -30 0 -25 4 -30 24 -30 16 0 47 -26 107 -92 46 -51
114 -126 152 -166 40 -44 67 -82 67 -95 0 -33 -291 -351 -325 -355 -20 -3 -25
-9 -25 -33 0 -16 5 -29 10 -29 7 0 10 -297 10 -870 0 -573 -3 -870 -10 -870
-5 0 -10 -13 -10 -30 0 -27 3 -30 30 -30 26 0 30 3 30 29 0 16 -4 31 -8 33 -4
2 4 120 20 263 15 143 39 373 53 510 14 138 32 309 40 380 7 72 21 208 31 303
13 129 21 172 31 172 7 0 13 11 13 26 0 19 27 57 93 133 233 268 301 341 319
341 13 0 18 8 18 30 0 24 -4 30 -22 30 -33 0 -402 420 -406 461 -2 16 -9 29
-16 29 -8 0 -20 76 -39 263 -15 144 -41 393 -57 552 -75 717 -80 771 -74 828
l7 57 -32 0 c-29 0 -31 -2 -31 -35z"/>
<path d="M2000 4037 c0 -12 -18 -44 -41 -71 -22 -27 -81 -100 -131 -163 -57
-71 -97 -113 -109 -113 -30 0 -27 -58 3 -62 31 -4 278 -310 278 -344 0 -20 5
-24 29 -24 26 0 30 4 33 30 4 44 244 339 276 340 18 0 22 6 22 29 0 23 -5 30
-22 33 -33 5 -277 304 -277 341 -1 23 -5 27 -31 27 -25 0 -30 -4 -30 -23z"/>
<path d="M3700 4037 c0 -31 -252 -341 -280 -345 -15 -3 -20 -11 -20 -33 0 -23
4 -29 23 -30 30 -1 277 -307 277 -344 0 -21 5 -25 30 -25 26 0 30 4 30 28 0
20 30 63 111 162 61 74 118 145 126 158 9 12 26 22 39 22 20 0 24 5 24 30 0
23 -5 30 -19 30 -31 0 -281 308 -281 345 0 21 -5 25 -30 25 -25 0 -30 -4 -30
-23z"/>
</g>
</svg>
